<?xml version="1.0" encoding="UTF-8"?>
<svg id="Layer_1" data-name="Layer 1" xmlns="http://www.w3.org/2000/svg" version="1.1" viewBox="0 0 792 1224">
  <defs>
    <style>
      .cls-1 {
        fill: #231f20;
        stroke-width: 0px;
      }
    </style>
  </defs>
  <g>
    <path class="cls-1" d="M354.57,717.85c7.89,0,13.6,2.63,18.91,7.63.7.66.7,1.64.08,2.3l-4.77,5.17c-.55.66-1.33.66-1.95,0-3.28-3.04-7.66-4.84-12.04-4.84-10,0-17.43,8.78-17.43,19.12s7.5,18.96,17.51,18.96c4.69,0,8.68-1.89,11.96-4.68.62-.57,1.49-.49,1.95,0l4.85,5.25c.62.57.47,1.64-.08,2.22-5.31,5.42-12.04,7.96-18.99,7.96-15.63,0-28.21-13.05-28.21-29.46s12.58-29.62,28.21-29.62Z"/>
    <path class="cls-1" d="M398.64,720.23c0-.82.7-1.56,1.48-1.56h7.42c.86,0,1.49.74,1.49,1.56v33.56c0,6.98,4.53,12.47,11.33,12.47s11.41-5.5,11.41-12.39v-33.65c0-.82.62-1.56,1.48-1.56h7.42c.78,0,1.49.74,1.49,1.56v34.14c0,12.47-9.46,22.57-21.81,22.57s-21.73-10.09-21.73-22.57v-34.14Z"/>
    <path class="cls-1" d="M478.59,728.52h-11.96c-.86,0-1.49-.74-1.49-1.56v-6.73c0-.82.63-1.56,1.49-1.56h34.15c.86,0,1.48.74,1.48,1.56v6.73c0,.82-.62,1.56-1.48,1.56h-11.96v46.04c0,.82-.7,1.56-1.49,1.56h-7.27c-.78,0-1.48-.74-1.48-1.56v-46.04Z"/>
    <path class="cls-1" d="M526.03,720.23c0-.82.7-1.56,1.48-1.56h7.27c.78,0,1.49.74,1.49,1.56v54.33c0,.82-.7,1.56-1.49,1.56h-7.27c-.78,0-1.48-.74-1.48-1.56v-54.33Z"/>
    <path class="cls-1" d="M573.47,728.52h-11.96c-.86,0-1.49-.74-1.49-1.56v-6.73c0-.82.63-1.56,1.49-1.56h34.15c.86,0,1.48.74,1.48,1.56v6.73c0,.82-.62,1.56-1.48,1.56h-11.96v46.04c0,.82-.7,1.56-1.49,1.56h-7.27c-.78,0-1.48-.74-1.48-1.56v-46.04Z"/>
  </g>
  <g>
    <path class="cls-1" d="M233.81,685.5c2.08-1.91,1.02-4.59-1.16-6.43-1.2-1.01-2.45-1.94-3.5-2.77.13-1.76.7-3.35.28-4.62-1.89-5.71.11-10.91,1.7-16.19.5-1.68,1.05-3.34,1.56-5.02,2.65-8.69,5.23-17.41,11.56-24.35,10.07-11.06,20.37-21.86,32.92-30.24,1.26-.84,2.83-2.69,2.69-3.89-.5-4.23-1.69-8.38-2.89-13.8-8.66,13.58-18.71,23.68-31.04,31.41-7.92,4.96-16.27,8.75-26.01,7.61-3.63-.42-7.24-1.04-10.88-1.33-17.78-1.41-32.9,8.52-38.86,25.31-2.09,5.88-2.42,11.66-.09,17.55,4.87,12.33,18.49,20.35,32.92,19.41,2.31-.15,5.19-.83,6.87.22,4.24,2.66,9.5,2.94,14.02,4.94,3.14,1.39,6.57,5.26,9.93,2.19ZM225.58,650.35c-2.54,7.8-8.57,14.83-16.01,18.34-3.33,1.57-6.96,2.19-10.59,2.03-5.25-.23-10.5-2.08-14.86-4.96-7.74-5.12-10.21-14.7-6.84-23.2,5.51-13.89,20.18-22.47,33.08-19.36,13,3.14,19.35,14.46,15.21,27.15Z"/>
    <path class="cls-1" d="M180.41,439.53c1.9,2.16,3.68,4.39,5.24,6.76,15.44,23.47,30.34,47.3,45.06,71.23,8.65,14.07,16.95,28.38,24.66,42.98,3.27,6.19,4.65,13.39,7.02,20.52,1.22-1.83,2.6-3.53,3.58-5.43,4.03-7.79,7.87-15.67,11.93-23.45,1.22-2.33,1.04-4.15-.29-6.42-17.85-30.42-35.69-60.84-53.3-91.39-4.44-7.7-8.54-15.66-11.91-23.87-1.26-3.06-1.1-5.35.16-7.22,2.85-1.89,8.05-3.16,17.09-3.6v-7.48h-84.67v7.48c17.86,2.82,26.96,10.76,35.42,19.89Z"/>
    <path class="cls-1" d="M455.29,642.22c-8.04,26.66-15.4,38.61-45.73,38.61h-32.63v-65.27h13.56c17.01,0,23.44,1.61,29.19,25.51h6.21v-59.75h-6.21c-5.75,23.9-12.18,25.51-29.19,25.51h-13.56v-59.98h32.63c25.74,0,29.88,8.27,37.92,34.01l7.12-.23-.69-42.29h-122.72v7.35c19.3.69,23.9,2.76,23.9,9.88v116.75c0,7.12-4.6,9.19-23.9,9.88h0c-.53,0-1.05.02-1.42,0-1.12-.02-2.25-.05-3.37-.07-4.64-.1-9.29-.22-13.93-.41-4.58-.19-9.71-1.05-13.29-4.17-3.33-2.9-4.49-7.32-4.79-11.58-.93-13.29-1.08-26.63-1.81-39.94-.73-13.26,2.59-25.6,8.48-37.23,7.99-15.79,17.09-31.06,24.54-47.09,21.63-46.56,42.66-93.4,63.94-140.13,2.97-6.52,6.08-12.99,8.84-19.6.51-1.22-.36-3.01-.6-4.54-1.39.68-2.86,1.24-4.13,2.11-.67.45-.98,1.43-1.44,2.18-20.26,32.57-40.6,65.1-60.77,97.72-18.31,29.61-37.95,58.47-51.45,90.8-.62,1.49-.43,3.5-.13,5.18,1.42,7.87,4.67,15.79,4.24,23.53-1.23,22.01-9.59,41.42-25.14,57.45-4.69,4.84-9.37,9.7-13.82,14.76-9.41,10.7-17.12,22.49-19.32,36.84-3.95,25.69,1.16,49.75,14.44,72.05,1.4,2.35,2.87,6.27,6.37,4.42,3.63-1.92,2.03-5.55.56-8.54-.32-.66-.76-1.25-1.08-1.91-3.11-6.45-6.69-12.72-9.19-19.4-2.9-7.73.29-13.94,7.96-16.93,3.12-1.21,6.43-1.94,9.7-2.71,11.28-2.67,20.04-8.79,25.74-18.93,4.89-8.69,5.58-16.67,3.75-26.67,2.54,0,4.89-.03,6.92,0,10.84.17,27.42.06,38.26,0l132.04.17,1.15-47.11-7.12-.23ZM311.16,531.84c4.4.01,7.92,3.72,7.87,8.28-.06,4.75-3.37,7.91-8.16,7.78-4.4-.12-7.72-3.49-7.76-7.87-.03-4.38,3.73-8.21,8.05-8.19ZM258.56,725.64c-13.24,3.14-26.17-7.48-24.49-20.94.77-6.19,2.97-12.56,6.01-18.02,5.59-10.03,15.08-13.85,24.29-11.15,8.46,2.48,14.2,11.58,14.18,22.48-.02,13.45-8.27,24.85-19.99,27.63Z"/>
  </g>
  <path class="cls-1" d="M482.55,645.81v-90.64c0-6.95-4.6-8.97-23.9-9.65v-7.18h67.8v7.18c-20.45.67-22.06,2.24-22.06,9.65v87.05c0,26.25,18.16,37.69,42.75,37.69,12.41,0,22.06-4.26,29.19-11.22,8.27-8.08,11.72-15.03,11.72-31.86v-63.27c0-20.42-4.83-25.58-26.66-28.72v-6.51h58.38v6.51c-20.45,3.59-22.52,8.3-22.52,28.72v70c0,23.56-20.68,45.99-57.23,45.99s-57.46-17.72-57.46-43.75Z"/>
</svg>